<mxfile host="app.diagrams.net" modified="2024-05-09T03:01:03.980Z" agent="Mozilla/5.0 (Windows NT 10.0; Win64; x64; rv:125.0) Gecko/20100101 Firefox/125.0" version="24.3.1" etag="arPQ9oSLKb3ki2acI1vX" type="github">
  <diagram name="PÃ¡gina-1" id="wHbGL2_5l_M5j5H-VO92">
    <mxGraphModel>
      <root>
        <mxCell id="0" />
        <mxCell id="1" parent="0" />
      </root>
    </mxGraphModel>
  </diagram>
</mxfile>
